<?xml version="1.0" encoding="UTF-8"?>
<!DOCTYPE svg PUBLIC "-//W3C//DTD SVG 1.1//EN" "http://www.w3.org/Graphics/SVG/1.1/DTD/svg11.dtd">
<!-- Creator: CorelDRAW -->
<svg xmlns="http://www.w3.org/2000/svg" xml:space="preserve" width="182.974mm" height="181.62mm" style="shape-rendering:geometricPrecision; text-rendering:geometricPrecision; image-rendering:optimizeQuality; fill-rule:evenodd; clip-rule:evenodd"
viewBox="0 0 181.492 180.15"
 xmlns:xlink="http://www.w3.org/1999/xlink">
 <defs>
  <style type="text/css">
   <![CDATA[
    .str0 {stroke:#56698F;stroke-width:0.0755829}
    .fil5 {fill:#56698F}
    .fil1 {fill:#2B2A29;fill-rule:nonzero}
    .fil3 {fill:url(#id1)}
    .fil4 {fill:url(#id2)}
    .fil2 {fill:url(#id3)}
    .fil0 {fill:url(#id4)}
   ]]>
  </style>
    <clipPath id="id0">
     <path d="M79.1283 77.6986l102.364 0 0 102.451 -102.364 0 0 -102.451z"/>
    </clipPath>
  <linearGradient id="id1" gradientUnits="userSpaceOnUse" x1="5.34129" y1="78.293" x2="40.8774" y2="78.293">
   <stop offset="0" style="stop-color:#008DD2"/>
   <stop offset="1" style="stop-color:#FEFEFE"/>
  </linearGradient>
  <linearGradient id="id2" gradientUnits="userSpaceOnUse" xlink:href="#id1" x1="26.4576" y1="78.293" x2="79.4254" y2="78.293">
  </linearGradient>
  <linearGradient id="id3" gradientUnits="userSpaceOnUse" xlink:href="#id1" x1="47.7062" y1="78.293" x2="118.416" y2="78.293">
  </linearGradient>
  <linearGradient id="id4" gradientUnits="userSpaceOnUse" x1="0.701374" y1="78.2931" x2="155.887" y2="78.2931">
   <stop offset="0" style="stop-color:#7A5980"/>
   <stop offset="1" style="stop-color:#FEFEFE"/>
  </linearGradient>
 </defs>
 <g id="Capa_x0020_1">
  <metadata id="CorelCorpID_0Corel-Layer"/>
  <g>
   <path class="fil0" d="M0.702862 78.2929l77.5915 -77.5915 77.5915 77.5915 -77.5915 77.5915 -77.5915 -77.5915zm28.1494 -9.91902e-005l49.4422 -49.4421 49.4421 49.4421 -49.4421 49.4422 -49.4422 -49.4422z"/>
   <path id="1" class="fil1" d="M78.645 1.05201l-77.5915 77.5915 -0.701275 -0.701275 77.5915 -77.5915 0.701275 0 0 0.701275zm-0.701275 -0.701275l0.350637 -0.350637 0.350637 0.350637 -0.701275 0zm77.5915 78.2928l-77.5915 -77.5915 0.701275 -0.701275 77.5915 77.5915 0 0.701275 -0.701275 0zm0.701275 -0.701275l0.350637 0.350637 -0.350637 0.350637 0 -0.701275zm-78.2928 77.5915l77.5915 -77.5915 0.701275 0.701275 -77.5915 77.5915 -0.701275 0 0 -0.701275zm0.701275 0.701275l-0.350637 0.350637 -0.350637 -0.350637 0.701275 0zm-77.5915 -78.2928l77.5915 77.5915 -0.701275 0.701275 -77.5915 -77.5915 0 -0.701275 0.701275 0zm-0.701275 0.701275l-0.350637 -0.350637 0.350637 -0.350637 0 0.701275zm78.2928 -49.4422l-49.4422 49.4421 -0.701275 -0.701275 49.4422 -49.4421 0.701275 0 0 0.701275zm-0.701275 -0.701275l0.350637 -0.350637 0.350637 0.350637 -0.701275 0zm49.4421 50.1433l-49.4421 -49.4421 0.701275 -0.701275 49.4421 49.4421 0 0.701275 -0.701275 0zm0.701275 -0.701275l0.350637 0.350637 -0.350637 0.350637 0 -0.701275zm-50.1433 49.4422l49.4421 -49.4422 0.701275 0.701275 -49.4421 49.4422 -0.701275 0 0 -0.701275zm0.701275 0.701275l-0.350637 0.350637 -0.350637 -0.350637 0.701275 0zm-49.4422 -50.1434l49.4422 49.4422 -0.701275 0.701275 -49.4422 -49.4422 0 -0.701275 0.701275 0zm-0.701275 0.701275l-0.350637 -0.350637 0.350637 -0.350637 0 0.701275z"/>
  </g>
  <g>
   <polygon class="fil2" points="47.7065,7.58359 118.416,78.293 47.7065,149.002 47.7065,120.853 90.2664,78.2928 47.7065,35.7331 "/>
   <path id="1" class="fil1" d="M118.065 78.6437l-70.7092 -70.7094 0.701275 -0.701275 70.7092 70.7094 0 0.701275 -0.701275 0zm0.701275 -0.701275l0.350637 0.350637 -0.350637 0.350637 0 -0.701275zm-71.4105 70.7092l70.7092 -70.7092 0.701275 0.701275 -70.7092 70.7092 -0.846588 -0.350637 0.145314 -0.350637zm0.701275 0.701275l-0.846588 0.846588 0 -1.19723 0.846588 0.350637zm0.145314 -28.5002l0 28.1496 -0.991902 0 0 -28.1496 0.145314 -0.350637 0.846588 0.350637zm-0.991902 0l0 -0.205324 0.145314 -0.145314 -0.145314 0.350637zm43.4064 -42.2092l-42.5598 42.5598 -0.701275 -0.701275 42.5598 -42.5598 0.701275 0 0 0.701275zm0 -0.701275l0.350637 0.350637 -0.350637 0.350637 0 -0.701275zm-42.5598 -42.5597l42.5598 42.5597 -0.701275 0.701275 -42.5598 -42.5597 -0.145314 -0.350637 0.846588 -0.350637zm-0.701275 0.701275l-0.145314 -0.145314 0 -0.205324 0.145314 0.350637zm0.846588 -28.5001l0 28.1495 -0.991902 0 0 -28.1495 0.846588 -0.350637 0.145314 0.350637zm-0.991902 0l0 -1.19723 0.846588 0.846588 -0.846588 0.350637z"/>
  </g>
  <g>
   <polygon class="fil3" points="5.34268,42.7596 40.8759,78.293 5.34268,113.826 5.34268,85.6766 12.7265,78.2928 5.34268,70.9091 "/>
   <path id="1" class="fil1" d="M40.5253 78.6437l-35.5332 -35.5334 0.701275 -0.701275 35.5332 35.5334 0 0.701275 -0.701275 0zm0.701275 -0.701275l0.350637 0.350637 -0.350637 0.350637 0 -0.701275zm-36.2345 35.5332l35.5332 -35.5332 0.701275 0.701275 -35.5332 35.5332 -0.846588 -0.350637 0.145314 -0.350637zm0.701275 0.701275l-0.846588 0.846588 0 -1.19723 0.846588 0.350637zm0.145314 -28.5002l0 28.1496 -0.991902 0 0 -28.1496 0.145314 -0.350637 0.846588 0.350637zm-0.991902 0l0 -0.205324 0.145314 -0.145314 -0.145314 0.350637zm8.23041 -7.03318l-7.38382 7.38382 -0.701275 -0.701275 7.38382 -7.38382 0.701275 0 0 0.701275zm0 -0.701275l0.350637 0.350637 -0.350637 0.350637 0 -0.701275zm-7.38382 -7.38372l7.38382 7.38372 -0.701275 0.701275 -7.38382 -7.38372 -0.145314 -0.350637 0.846588 -0.350637zm-0.701275 0.701275l-0.145314 -0.145314 0 -0.205324 0.145314 0.350637zm0.846588 -28.5001l0 28.1495 -0.991902 0 0 -28.1495 0.846588 -0.350637 0.145314 0.350637zm-0.991902 0l0 -1.19723 0.846588 0.846588 -0.846588 0.350637z"/>
  </g>
  <g>
   <polygon class="fil4" points="26.4587,25.3272 79.4243,78.293 26.4587,131.259 26.4587,103.109 51.2749,78.2928 26.4587,53.4766 "/>
   <path id="1" class="fil1" d="M79.0736 78.6437l-52.9656 -52.9658 0.701275 -0.701275 52.9656 52.9658 0 0.701275 -0.701275 0zm0.701275 -0.701275l0.350637 0.350637 -0.350637 0.350637 0 -0.701275zm-53.6669 52.9656l52.9656 -52.9656 0.701275 0.701275 -52.9656 52.9656 -0.846588 -0.350637 0.145314 -0.350637zm0.701275 0.701275l-0.846588 0.846588 0 -1.19723 0.846588 0.350637zm0.145314 -28.5002l0 28.1496 -0.991902 0 0 -28.1496 0.145314 -0.350637 0.846588 0.350637zm-0.991902 0l0 -0.205324 0.145314 -0.145314 -0.145314 0.350637zm25.6628 -24.4656l-24.8162 24.8162 -0.701275 -0.701275 24.8162 -24.8162 0.701275 0 0 0.701275zm0 -0.701275l0.350637 0.350637 -0.350637 0.350637 0 -0.701275zm-24.8162 -24.8162l24.8162 24.8162 -0.701275 0.701275 -24.8162 -24.8162 -0.145314 -0.350637 0.846588 -0.350637zm-0.701275 0.701275l-0.145314 -0.145314 0 -0.205324 0.145314 0.350637zm0.846588 -28.5l0 28.1494 -0.991902 0 0 -28.1494 0.846588 -0.350637 0.145314 0.350637zm-0.991902 0l0 -1.19723 0.846588 0.846588 -0.846588 0.350637z"/>
  </g>
  <g>
   <g style="clip-path:url(#id0)">
    <image transform="matrix(1 0 0 1 -12.3587 55.8712)" x="91.487" y="21.8274" width="102.364" height="102.451" xlink:href="LOGO COPITEC 3_Images\LOGO COPITEC 3_ImgID1.png"/>
   </g>
  </g>
  <path class="fil5 str0" d="M98.099 170.74l2.93137 -2.93127c0.224467,-0.224467 0.49853,-0.339826 0.821989,-0.346571 0.320087,-0.0100182 0.597522,0.102265 0.821989,0.326832 0.224567,0.224467 0.33318,0.498332 0.326832,0.821989 -0.00674493,0.323459 -0.122302,0.597522 -0.346571,0.821791l-3.03711 3.03711c-0.386147,0.386147 -0.90759,0.663285 -1.56443,0.831809 -0.66021,0.164953 -1.22153,0.178245 -1.68365,0.0395769l-5.50605 -1.74962c-0.772394,-0.270492 -1.4326,-0.680048 -1.98053,-1.22797 -0.607342,-0.607242 -1.01343,-1.25099 -1.21815,-1.93768l-1.69338 -5.48284c-0.155133,-0.511722 -0.171599,-1.08951 -0.0429494,-1.72631 0.125376,-0.634024 0.363235,-1.12898 0.719526,-1.48557l3.2088 -3.20841c0.227542,-0.227939 0.501704,-0.33685 0.821791,-0.333477 0.316913,0.00644736 0.58433,0.115557 0.805524,0.336751 0.224567,0.224269 0.340123,0.498332 0.349844,0.818418 0.00644736,0.323757 -0.105538,0.594249 -0.333378,0.822088l-3.09315 3.09315c-0.257399,0.257399 -0.316714,0.620336 -0.174972,1.08584l1.5681 5.16612c0.122202,0.405886 0.366508,0.788959 0.726172,1.14882 0.3797,0.379403 0.792232,0.640174 1.23789,0.775568l5.03083 1.58437c0.501704,0.178344 0.937347,0.0857995 1.30366,-0.28051zm3.48257 -23.559l5.43364 1.85496c0.749283,0.247579 1.41257,0.660408 1.99362,1.24127 0.564392,0.564591 0.977222,1.22788 1.22797,1.98053l1.81895 5.39714c0.409259,1.17521 0.161581,2.21512 -0.746208,3.1229 -0.43237,0.43237 -0.934074,0.709508 -1.50511,0.825163 -0.571038,0.122004 -1.11262,0.0958177 -1.62731,-0.0694331l-5.40696 -1.80893c-0.710004,-0.234287 -1.36347,-0.650192 -1.96099,-1.24771 -0.600894,-0.600795 -1.01987,-1.25763 -1.26081,-1.97408l-1.84543 -5.44316c-0.386147,-1.19832 -0.13847,-2.24467 0.752655,-3.136 0.901143,-0.901143 1.9477,-1.14882 3.12598,-0.742637zm-1.66352 3.28756l1.7396 5.10681c0.188065,0.498431 0.445662,0.90759 0.775767,1.2377 0.353216,0.353216 0.769121,0.617558 1.24434,0.782512l5.19241 1.73285c0.306994,0.122302 0.577684,0.0626882 0.815344,-0.174872 0.204729,-0.204729 0.257399,-0.468872 0.151761,-0.792232l-1.71956 -5.2055c-0.178245,-0.501902 -0.439214,-0.921179 -0.772394,-1.25436 -0.356589,-0.356589 -0.769418,-0.610913 -1.24801,-0.766046l-5.12635 -1.71986c-0.359862,-0.141743 -0.656838,-0.0955202 -0.88805,0.135395 -0.234287,0.234585 -0.287156,0.538206 -0.164854,0.917609zm18.4591 1.61759l-12.0419 -12.0419 5.76672 -5.76682c0.663583,-0.663483 1.47893,-0.990315 2.44276,-0.990315 0.963831,0.00644736 1.77917,0.339925 2.45238,1.01323l3.04365 3.04355c0.673502,0.673502 1.00668,1.4822 1.00668,2.43958 0,0.950441 -0.333477,1.76578 -1.00341,2.43601l-4.11967 4.11967 4.09993 4.09983c0.224467,0.224567 0.336751,0.495058 0.336751,0.81207 0,0.316913 -0.112283,0.587404 -0.340123,0.815344 -0.230915,0.230915 -0.504977,0.346471 -0.825064,0.349844 -0.320384,0.00337247 -0.594249,-0.105538 -0.818716,-0.330105zm-4.07672 -7.37102l4.11957 -4.11967c0.217921,-0.217822 0.330105,-0.488512 0.330105,-0.805524 0.00337247,-0.320087 -0.105538,-0.594149 -0.333378,-0.821791l-3.04355 -3.04355c-0.227642,-0.22784 -0.501704,-0.336751 -0.822088,-0.333477 -0.316714,0 -0.587504,0.112283 -0.805325,0.330105l-4.11957 4.11967 4.67424 4.67424zm4.79287 -17.4293l6.57572 -6.57542c0.211176,-0.211374 0.481965,-0.317012 0.808698,-0.320285 0.326733,-0.00337247 0.597522,0.102463 0.818716,0.323658 0.22417,0.224467 0.339826,0.498332 0.343198,0.825064 0.00327328,0.326832 -0.10901,0.597522 -0.326832,0.815344l-2.45605 2.45605 9.58614 9.58594 2.45605 -2.45585c0.224567,-0.224467 0.495058,-0.336751 0.811971,-0.336751 0.313739,-0.00337247 0.587504,0.112283 0.81207,0.336751 0.224467,0.224567 0.336751,0.495058 0.333378,0.815344 -0.00327328,0.320087 -0.115557,0.590876 -0.333378,0.808698l-6.57542 6.57542c-0.227939,0.22784 -0.498629,0.340123 -0.815344,0.340123 -0.313739,-0.00337247 -0.584429,-0.115557 -0.808995,-0.340123 -0.224467,-0.224269 -0.339826,-0.498332 -0.339826,-0.808698 0,-0.316714 0.112283,-0.587404 0.339826,-0.815344l2.49563 -2.49533 -9.58614 -9.58614 -2.49533 2.49543c-0.22784,0.22784 -0.498629,0.340024 -0.818716,0.336751 -0.316913,-0.00674493 -0.58433,-0.115656 -0.805524,-0.336751 -0.231014,-0.231014 -0.346571,-0.505077 -0.353216,-0.821791 -0.00337247,-0.320384 0.105538,-0.594149 0.333378,-0.822088zm13.3657 -8.93565l-2.19508 -2.19508 8.19976 -8.19966 2.21482 2.21502c0.22784,0.227642 0.340123,0.498431 0.336751,0.818518 -0.00664574,0.316913 -0.118929,0.587404 -0.336751,0.805524 -0.224567,0.224269 -0.501704,0.343198 -0.825362,0.343198 -0.326733,0.00337247 -0.597522,-0.102265 -0.818418,-0.32336l-0.591074 -0.590876 -1.64388 1.64378 10.3982 10.3981c0.224467,0.224269 0.333378,0.498431 0.333378,0.815344 -0.00327328,0.320087 -0.115557,0.590876 -0.333378,0.808698 -0.234287,0.234287 -0.508449,0.349844 -0.828536,0.353216 -0.320285,0.00337247 -0.591074,-0.108911 -0.815344,-0.333378l-10.3981 -10.3982 -1.64398 1.64408 0.571038 0.571038c0.22784,0.227642 0.340123,0.498332 0.340123,0.815344 0,0.316814 -0.115656,0.58423 -0.339925,0.808698 -0.22784,0.22784 -0.495257,0.343198 -0.811971,0.343198 -0.313639,-0.00337247 -0.584429,-0.115358 -0.812269,-0.343198zm18.7795 -19.9216l-5.74391 5.74391 3.95799 3.95779 2.47559 -2.47579c0.217822,-0.217921 0.488611,-0.330105 0.808698,-0.326832 0.323658,0 0.594149,0.105638 0.815344,0.326832 0.231212,0.231113 0.350141,0.50835 0.353216,0.828635 0,0.316814 -0.108911,0.590876 -0.33318,0.815344l-2.47589 2.47559 3.98427 3.98427 5.76345 -5.76345c0.217822,-0.217822 0.488611,-0.330105 0.808995,-0.333378 0.313342,-0.00337247 0.590777,0.108911 0.815344,0.333378 0.224269,0.224567 0.33318,0.498431 0.326733,0.822088 -0.00664574,0.32336 -0.122302,0.597522 -0.346571,0.821791l-7.37122 7.37122 -12.854 -12.8542 7.37102 -7.37102c0.224467,-0.224567 0.501704,-0.336751 0.831809,-0.336751 0.330105,0 0.60754,0.112184 0.832007,0.336751 0.221194,0.221194 0.326733,0.491884 0.323459,0.818716 -0.00337247,0.326733 -0.118929,0.600795 -0.343198,0.825064zm18.6371 0.534834l2.93127 -2.93127c0.224467,-0.224567 0.498629,-0.339925 0.821989,-0.346571 0.320087,-0.00972064 0.597522,0.102265 0.821791,0.326733 0.224567,0.224567 0.333477,0.498629 0.32703,0.822088 -0.00664574,0.32336 -0.122302,0.597522 -0.346769,0.821989l-3.03691 3.03691c-0.386048,0.386048 -0.90759,0.663285 -1.56473,0.831809 -0.660111,0.164854 -1.22113,0.178245 -1.68336,0.0394777l-5.50595 -1.74932c-0.772493,-0.270789 -1.4327,-0.680246 -1.98063,-1.22817 -0.60754,-0.607242 -1.01343,-1.25099 -1.21815,-1.93768l-1.69338 -5.48294c-0.155133,-0.511722 -0.171599,-1.08921 -0.0428502,-1.72621 0.125376,-0.634024 0.363235,-1.12908 0.719526,-1.48557l3.2087 -3.20851c0.227642,-0.22784 0.501704,-0.336751 0.821791,-0.333378 0.317012,0.00664574 0.584429,0.115557 0.805623,0.336751 0.22417,0.224467 0.339826,0.498332 0.349844,0.818418 0.00644736,0.323658 -0.105836,0.594447 -0.333477,0.821989l-3.09315 3.09315c-0.257399,0.257399 -0.316714,0.620435 -0.174872,1.08584l1.568 5.16622c0.122004,0.405886 0.366607,0.78886 0.726172,1.14872 0.3797,0.379502 0.792232,0.640174 1.23799,0.775568l5.03053 1.58476c0.501902,0.177947 0.937645,0.0857995 1.30395,-0.280807z"/>
 </g>
</svg>
